<svg xmlns="http://www.w3.org/2000/svg" viewBox="0 0 512 512" fill="none">
  <defs>
    <linearGradient id="bg" x1="0" y1="0" x2="512" y2="512" gradientUnits="userSpaceOnUse">
      <stop offset="0%" stop-color="#6366f1"/>
      <stop offset="100%" stop-color="#4338ca"/>
    </linearGradient>
    <linearGradient id="sh" x1="256" y1="80" x2="256" y2="440" gradientUnits="userSpaceOnUse">
      <stop offset="0%" stop-color="#ffffff" stop-opacity="0.95"/>
      <stop offset="100%" stop-color="#c7d2fe" stop-opacity="0.85"/>
    </linearGradient>
  </defs>
  <!-- Rounded square -->
  <rect width="512" height="512" rx="96" fill="url(#bg)"/>
  <!-- Shield -->
  <path d="M256 88 L392 148 L392 284 C392 360 332 416 256 440 C180 416 120 360 120 284 L120 148 Z" fill="url(#sh)"/>
  <!-- Z path (bold geometric) -->
  <path d="M192 192 L312 192 L312 216 L228 296 L312 296 L312 320 L192 320 L192 296 L276 216 L192 216 Z" fill="#4338ca"/>
  <!-- Privacy dot (keyhole) -->
  <circle cx="256" cy="156" r="14" fill="#4338ca" opacity="0.5"/>
  <!-- Small shield check accent -->
  <path d="M340 168 L348 176 L368 152" stroke="#22c55e" stroke-width="8" stroke-linecap="round" stroke-linejoin="round" fill="none"/>
</svg>
